<?xml version="1.0" standalone="no"?>
<!DOCTYPE svg PUBLIC "-//W3C//DTD SVG 20010904//EN"
 "http://www.w3.org/TR/2001/REC-SVG-20010904/DTD/svg10.dtd">
<svg version="1.0" xmlns="http://www.w3.org/2000/svg"
 width="1131.000000pt" height="980.000000pt" viewBox="0 0 1131.000000 980.000000"
 preserveAspectRatio="xMidYMid meet">

<g transform="translate(0.000000,980.000000) scale(0.100000,-0.100000)"
fill="#000000" stroke="none">
<path d="M5612 9733 c-21 -37 -83 -144 -137 -238 -54 -93 -130 -226 -170 -295
-40 -69 -184 -318 -320 -555 -137 -236 -280 -484 -318 -550 -38 -66 -96 -167
-129 -225 -33 -58 -93 -161 -133 -230 -61 -105 -626 -1084 -1047 -1815 -64
-110 -191 -330 -283 -490 -166 -288 -421 -728 -603 -1045 -52 -91 -127 -221
-167 -290 -40 -69 -132 -228 -205 -355 -73 -126 -165 -286 -205 -355 -40 -69
-141 -244 -225 -390 -84 -146 -219 -380 -300 -520 -81 -140 -181 -313 -222
-385 -41 -71 -279 -483 -528 -915 -249 -432 -480 -832 -513 -890 -33 -58 -71
-122 -83 -142 -13 -21 -24 -40 -24 -43 0 -3 2545 -5 5655 -5 3110 0 5655 2
5655 5 0 2 -19 37 -43 77 -24 40 -80 136 -124 213 -45 77 -165 286 -268 465
-104 179 -220 381 -260 450 -227 393 -548 950 -727 1260 -113 195 -258 447
-323 560 -65 113 -150 261 -190 330 -40 69 -181 314 -314 545 -134 231 -278
481 -321 555 -43 74 -187 324 -320 555 -133 231 -302 524 -375 650 -132 228
-283 491 -652 1130 -705 1220 -891 1544 -958 1660 -28 50 -148 257 -265 460
-118 204 -278 483 -358 620 -79 138 -147 254 -152 258 -4 5 -26 -22 -48 -60z
m88 -513 c20 -33 39 -58 42 -55 2 3 5 -1 5 -8 0 -11 188 -347 242 -432 14 -22
25 -42 26 -45 1 -19 110 -188 118 -183 6 3 7 1 4 -4 -6 -10 59 -139 101 -203
10 -14 33 -53 52 -86 19 -34 48 -85 64 -113 16 -28 33 -48 39 -44 6 3 7 1 3
-5 -9 -15 305 -562 319 -555 5 4 7 3 3 -2 -7 -7 24 -69 90 -183 19 -33 27 -40
34 -30 6 9 7 5 3 -11 -5 -17 -4 -22 5 -16 8 5 11 4 7 -2 -10 -16 82 -175 95
-167 7 4 8 2 4 -4 -6 -10 36 -88 194 -362 21 -36 50 -87 65 -115 16 -27 31
-52 34 -55 3 -3 21 -32 38 -65 18 -33 38 -59 44 -57 6 1 8 -2 5 -7 -8 -13 60
-137 73 -134 6 2 7 -5 4 -14 -5 -12 -3 -14 7 -8 9 5 11 4 6 -4 -4 -6 -3 -17 2
-24 9 -11 262 -449 415 -719 33 -59 65 -104 70 -101 6 3 7 1 3 -6 -4 -6 2 -24
13 -40 12 -16 21 -31 21 -34 0 -3 19 -38 41 -77 31 -53 44 -68 51 -58 6 9 7 5
3 -11 -5 -17 -4 -22 5 -16 8 5 11 4 7 -2 -6 -10 78 -173 89 -173 3 0 2 5 -2
12 -4 7 -3 8 5 4 6 -4 9 -12 6 -17 -9 -13 27 -69 38 -62 6 3 7 1 3 -5 -4 -7
17 -54 47 -104 29 -51 68 -120 87 -153 18 -33 45 -78 59 -100 14 -22 25 -42
26 -45 0 -3 25 -47 55 -97 37 -64 57 -89 63 -80 6 8 7 5 3 -7 -6 -19 19 -66
219 -406 34 -58 88 -152 121 -210 32 -58 61 -107 64 -110 3 -3 11 -16 18 -30
14 -27 50 -92 126 -221 26 -46 60 -104 73 -129 14 -25 47 -82 74 -126 27 -45
49 -84 49 -88 0 -12 58 -95 64 -91 3 3 4 2 1 -1 -5 -7 47 -105 124 -233 28
-46 51 -88 51 -93 0 -5 6 -6 13 -2 6 4 9 4 5 -1 -4 -4 2 -26 13 -48 17 -31 23
-37 31 -26 8 11 9 10 4 -4 -8 -24 45 -121 57 -104 6 8 7 6 3 -7 -4 -11 -3 -22
1 -25 4 -3 24 -36 43 -73 19 -36 38 -64 42 -62 4 3 5 -2 2 -10 -3 -9 -1 -16 5
-16 6 0 11 -6 11 -12 0 -21 57 -98 65 -90 5 4 5 1 1 -5 -4 -7 14 -49 42 -95
26 -46 52 -90 56 -98 4 -8 12 -24 19 -35 7 -11 18 -31 26 -44 11 -19 15 -21
23 -10 7 11 8 9 4 -5 -8 -23 313 -587 329 -579 5 4 7 3 3 -2 -7 -8 44 -108
114 -223 21 -34 38 -66 38 -70 1 -13 67 -112 72 -107 3 3 5 -1 5 -8 0 -22 178
-328 187 -322 3 3 4 2 1 -1 -5 -7 16 -49 53 -109 14 -22 25 -42 25 -45 0 -3
13 -25 28 -50 15 -24 25 -48 23 -52 -6 -10 -10408 -11 -10417 -1 -4 3 4 25 18
49 28 47 31 59 13 48 -7 -4 -8 -3 -4 5 4 6 11 9 16 6 7 -4 60 80 109 174 7 14
32 58 56 96 23 39 45 77 48 85 4 8 11 22 17 30 17 26 87 145 91 155 2 6 15 28
29 50 14 22 23 40 21 40 -2 0 15 29 38 64 22 35 41 73 41 84 0 11 3 17 7 14 3
-4 18 14 33 40 14 27 62 109 105 183 144 247 155 268 149 287 -5 14 -4 15 4 4
8 -11 12 -10 21 8 7 12 9 27 5 33 -4 7 -3 8 4 4 7 -4 21 12 36 41 21 42 99
180 126 223 21 35 64 108 195 335 134 234 228 397 266 462 51 89 58 104 53
120 -4 12 -3 14 3 6 6 -9 26 15 63 80 30 50 55 94 55 97 0 3 12 23 26 45 38
58 59 102 54 109 -3 3 -2 4 2 1 3 -3 18 16 33 42 14 27 61 108 103 180 42 73
77 137 77 142 0 5 4 11 8 13 15 6 73 119 66 130 -4 7 -3 8 4 4 14 -8 36 30 26
46 -4 6 -3 8 4 5 6 -4 27 23 50 65 22 40 72 129 112 198 67 114 90 155 133
230 8 14 56 97 107 185 51 88 113 196 138 240 24 44 52 91 62 105 9 14 30 50
47 80 16 30 58 102 92 160 35 58 63 107 63 110 1 3 11 21 23 40 28 45 55 96
52 101 -1 2 0 3 2 2 7 -4 184 307 184 324 0 7 3 10 6 8 12 -7 101 164 95 182
-5 14 -4 15 4 4 7 -10 19 3 48 55 20 38 66 117 101 177 35 59 63 110 63 113 0
3 8 18 19 32 23 34 221 379 221 387 0 4 -5 3 -12 -1 -7 -4 -8 -3 -4 5 4 6 11
9 15 7 10 -7 92 136 87 151 -3 7 -1 12 4 10 8 -2 98 138 121 188 5 11 18 35
29 53 11 18 17 38 14 44 -4 6 -3 8 3 5 5 -4 16 6 24 21 8 15 26 46 42 68 15
23 27 46 27 52 0 5 7 15 15 22 8 6 14 15 13 18 -1 4 9 25 23 47 41 64 59 102
51 110 -4 5 -1 5 6 1 6 -4 12 -3 12 1 0 5 25 52 56 104 96 161 115 199 108
211 -4 6 -3 8 3 5 9 -5 73 83 73 100 0 3 16 32 36 64 19 32 32 64 28 70 -4 7
-3 9 4 6 6 -4 27 23 50 65 22 40 72 129 112 198 41 69 83 142 94 162 105 185
223 388 239 411 10 15 16 34 13 42 -3 8 -1 14 4 12 7 -2 120 174 120 187 0 3
11 22 25 42 14 21 23 44 20 51 -2 8 -1 12 3 9 8 -5 61 77 65 99 2 14 40 56 45
50 3 -2 21 -32 42 -65z m281 -423 c-10 -9 -11 -8 -5 6 3 10 9 15 12 12 3 -3 0
-11 -7 -18z m-1308 -1172 c-3 -9 -8 -14 -10 -11 -3 3 -2 9 2 15 9 16 15 13 8
-4z m2115 -250 c-3 -3 -9 2 -12 12 -6 14 -5 15 5 6 7 -7 10 -15 7 -18z m393
-658 c-10 -9 -11 -8 -5 6 3 10 9 15 12 12 3 -3 0 -11 -7 -18z m230 -270 c-10
-9 -11 -8 -5 6 3 10 9 15 12 12 3 -3 0 -11 -7 -18z m-4168 -1302 c-3 -9 -8
-14 -10 -11 -3 3 -2 9 2 15 9 16 15 13 8 -4z m-970 -1680 c-3 -9 -8 -14 -10
-11 -3 3 -2 9 2 15 9 16 15 13 8 -4z m7511 -1091 c3 -8 2 -12 -4 -9 -6 3 -10
10 -10 16 0 14 7 11 14 -7z m194 -349 c-3 -3 -9 2 -12 12 -6 14 -5 15 5 6 7
-7 10 -15 7 -18z m252 -596 c0 -6 -4 -7 -10 -4 -5 3 -10 11 -10 16 0 6 5 7 10
4 6 -3 10 -11 10 -16z"/>
<path d="M5599 8301 c-39 -12 -71 -32 -91 -55 -23 -27 -36 -70 -237 -781 -94
-330 -253 -892 -355 -1250 -101 -357 -266 -940 -366 -1295 -101 -355 -187
-649 -191 -654 -5 -5 -43 -11 -86 -12 -116 -5 -140 -12 -183 -50 -62 -57 -72
-95 -68 -277 3 -154 3 -156 33 -198 17 -23 50 -53 74 -66 l45 -23 1492 2 1492
3 43 30 c25 18 53 50 67 76 22 43 23 58 23 193 -1 163 -10 198 -63 253 -41 42
-74 52 -182 57 -48 2 -91 7 -95 12 -4 5 -54 173 -111 374 -56 201 -131 464
-165 585 -35 121 -127 445 -205 720 -125 443 -269 950 -557 1965 -77 269 -91
308 -120 340 -46 52 -123 72 -194 51z m505 -1268 c46 -159 86 -305 86 -317 0
-14 -54 -16 -535 -16 -481 0 -535 2 -535 16 0 12 40 158 86 317 5 16 35 17
449 17 414 0 444 -1 449 -17z m210 -740 c46 -159 86 -305 86 -317 0 -14 -73
-16 -745 -16 -672 0 -745 2 -745 16 0 12 40 158 86 317 5 16 45 17 659 17 614
0 654 -1 659 -17z m210 -740 c27 -91 86 -309 86 -319 0 -12 -156 -14 -955 -14
-863 0 -955 2 -955 16 0 12 40 158 86 317 5 16 55 17 869 17 814 0 864 -1 869
-17z"/>
<path d="M2380 2993 c0 -5 43 -168 95 -363 52 -195 116 -435 142 -532 l47
-178 107 0 c59 0 110 3 112 8 4 6 158 563 197 712 8 31 14 40 20 30 4 -8 49
-168 100 -355 50 -187 95 -351 99 -365 7 -24 10 -25 119 -28 62 -1 112 0 112
4 0 3 36 142 81 308 155 579 199 746 199 756 0 6 -43 10 -115 10 l-114 0 -15
-52 c-8 -29 -47 -179 -86 -333 -38 -154 -74 -289 -78 -299 -9 -21 -8 -23 -120
414 l-67 265 -115 3 -116 3 -22 -88 c-28 -115 -129 -493 -149 -563 -20 -68
-11 -94 -117 323 l-82 322 -117 3 c-64 1 -117 -1 -117 -5z"/>
<path d="M4275 2988 c-185 -35 -355 -200 -400 -389 -46 -196 6 -389 142 -525
212 -212 586 -201 784 24 92 105 130 211 130 362 0 165 -41 268 -151 381 -129
131 -310 184 -505 147z m241 -219 c68 -26 130 -84 165 -154 21 -43 24 -64 24
-155 0 -95 -3 -110 -27 -157 -57 -107 -140 -162 -259 -171 -134 -9 -247 55
-306 176 -25 50 -28 68 -28 152 0 81 4 103 26 151 71 151 243 218 405 158z"/>
<path d="M6070 2460 l0 -540 110 0 110 0 2 227 3 227 135 -155 c74 -84 137
-156 140 -159 3 -3 32 -35 64 -72 l58 -68 140 0 c84 0 138 4 136 10 -1 5 -100
118 -219 252 -119 134 -230 259 -247 279 l-31 35 197 236 c108 129 203 242
211 251 12 16 4 17 -112 17 l-125 0 -169 -204 c-92 -113 -171 -205 -175 -205
-5 -1 -8 91 -8 204 l0 205 -110 0 -110 0 0 -540z"/>
<path d="M7600 2460 l0 -540 110 0 110 0 0 540 0 540 -110 0 -110 0 0 -540z"/>
<path d="M7970 2460 l0 -540 110 0 110 0 0 325 c0 179 3 325 8 325 4 0 153
-146 332 -325 311 -311 326 -325 362 -325 l38 0 0 540 0 540 -110 0 -110 0 0
-332 0 -333 -333 333 c-318 318 -334 332 -370 332 l-37 0 0 -540z"/>
<path d="M5050 2456 l0 -536 115 0 115 0 0 195 0 195 88 0 87 0 105 -195 105
-194 143 -1 c78 0 142 3 142 6 0 4 -56 93 -125 199 -69 106 -125 197 -125 201
0 5 21 20 46 33 106 57 159 158 158 301 -1 144 -56 232 -184 294 l-65 31 -302
3 -303 3 0 -535z m543 310 c57 -24 72 -50 72 -126 0 -118 -38 -140 -245 -140
l-140 0 0 140 0 140 140 0 c96 0 151 -4 173 -14z"/>
<path d="M1727 1613 c-4 -3 -7 -246 -7 -540 l0 -533 110 0 110 0 0 219 0 219
188 5 c210 5 263 16 334 70 27 20 54 55 73 92 28 54 30 66 29 159 0 109 -12
148 -60 205 -40 48 -106 81 -191 96 -81 15 -573 21 -586 8z m610 -236 c23 -23
28 -36 28 -77 0 -41 -5 -54 -28 -77 l-27 -28 -185 -3 -185 -3 0 104 c0 57 3
107 7 111 5 4 88 6 185 4 l178 -3 27 -28z"/>
<path d="M4135 1614 c-11 -2 -45 -9 -75 -15 -126 -25 -277 -144 -339 -268 -80
-157 -75 -389 11 -529 104 -170 271 -262 474 -262 190 0 372 104 464 264 63
112 85 275 55 405 -44 183 -193 340 -370 387 -54 15 -188 26 -220 18z m209
-238 c65 -32 110 -80 145 -156 32 -69 36 -187 8 -267 -22 -62 -83 -134 -145
-170 -60 -35 -184 -44 -260 -19 -179 60 -260 293 -167 483 71 144 265 204 419
129z"/>
<path d="M5293 1609 c-314 -52 -506 -369 -416 -689 23 -83 57 -143 122 -212
75 -80 145 -122 245 -148 176 -45 358 -11 501 91 l45 32 0 254 0 253 -202 -2
-203 -3 0 -100 0 -100 93 -3 93 -3 -3 -87 -3 -87 -40 -20 c-59 -30 -201 -28
-270 3 -116 53 -177 153 -177 295 0 65 5 88 30 141 53 114 146 168 287 168 87
0 145 -16 209 -58 32 -22 41 -24 51 -12 7 7 40 44 74 82 l62 69 -67 43 c-136
88 -277 119 -431 93z"/>
<path d="M6924 1607 c-2 -7 -3 -249 -2 -537 l3 -525 395 0 395 0 0 100 0 100
-282 3 -283 2 0 115 0 115 230 0 230 0 0 105 0 105 -230 0 -230 0 0 110 0 110
285 0 286 0 -3 103 -3 102 -393 3 c-314 2 -394 0 -398 -11z"/>
<path d="M8170 1610 c-119 -25 -251 -129 -278 -217 -15 -50 -15 -145 -1 -197
25 -91 137 -165 293 -193 129 -23 164 -34 191 -58 30 -29 40 -67 29 -113 -14
-56 -51 -76 -145 -81 -100 -4 -159 10 -228 55 l-53 36 -51 -49 c-69 -65 -87
-85 -87 -94 0 -14 83 -76 139 -104 112 -56 295 -72 413 -35 115 35 223 131
248 218 26 95 1 218 -57 282 -43 49 -134 95 -228 116 -208 46 -239 62 -237
123 2 63 44 97 132 108 75 9 134 -4 192 -43 l52 -35 73 73 73 72 -28 23 c-58
48 -123 85 -174 99 -70 18 -212 25 -268 14z"/>
<path d="M9112 1609 c-60 -12 -148 -53 -197 -93 -112 -92 -137 -271 -53 -387
38 -52 145 -104 259 -126 132 -24 156 -32 188 -59 58 -49 50 -125 -19 -172
-32 -22 -42 -24 -135 -20 -82 4 -109 9 -151 31 -27 14 -56 33 -63 41 -8 9 -19
16 -25 16 -20 0 -149 -137 -141 -150 13 -21 138 -96 200 -120 52 -20 79 -24
195 -24 l136 -1 74 37 c143 71 205 158 204 288 -2 175 -99 265 -343 316 -162
35 -202 63 -186 134 14 64 98 100 205 87 52 -6 118 -35 139 -61 8 -9 19 -16
25 -16 6 0 43 32 81 71 l70 70 -40 35 c-102 90 -276 132 -423 103z"/>
<path d="M2680 1075 l0 -535 120 0 120 0 0 195 0 195 84 0 84 0 107 -195 107
-195 144 0 144 0 -43 68 c-24 37 -78 120 -120 184 -110 170 -106 149 -36 193
102 63 149 152 149 285 0 134 -51 229 -153 285 -87 48 -140 55 -439 55 l-268
0 0 -535z m550 307 c99 -49 106 -186 12 -244 -31 -19 -53 -22 -179 -26 l-143
-5 0 147 0 146 138 0 c110 0 144 -3 172 -18z"/>
<path d="M5900 1075 l0 -535 120 0 120 0 0 195 0 195 84 0 84 0 105 -192 104
-193 142 -3 c78 -1 141 1 141 6 0 5 -57 96 -126 203 -107 164 -124 194 -110
203 8 6 34 22 57 36 96 58 144 166 137 304 -5 96 -29 155 -84 209 -94 93 -158
107 -501 107 l-273 0 0 -535z m532 315 c78 -22 115 -107 82 -189 -30 -73 -66
-86 -239 -86 l-140 0 -2 134 c-1 74 0 138 3 143 7 12 252 10 296 -2z"/>
</g>
</svg>
